<svg width="844" height="309" viewBox="0 0 844 309" fill="none" xmlns="http://www.w3.org/2000/svg">
<path d="M59.29 67.0901V308.78H0V126.39L59.29 67.0901Z" fill="#0B4479"/>
<path d="M150.87 308.78H234.71L157.39 231.46C145.77 219.84 139.36 204.38 139.36 187.94C139.36 171.5 145.76 156.05 157.39 144.42L217.97 83.84V0L115.47 102.5C92.6501 125.32 80.0801 155.66 80.0801 187.94C80.0801 220.21 92.6501 250.56 115.47 273.38L150.87 308.78Z" fill="#D87943"/>
<path d="M261.65 254.16V132.49H289.63V254.16H261.65ZM286.85 226.35L285.29 193.85L343.52 132.49H374.81L322.32 188.98L306.68 205.67L286.85 226.35ZM344.91 254.16L301.63 201.15L320.05 181.16L377.76 254.16H344.91Z" fill="#0B4479"/>
<path d="M465.88 256.24C456.26 256.24 447.37 254.68 439.2 251.55C431.03 248.42 423.96 244.02 418 238.34C412.03 232.66 407.4 226 404.09 218.35C400.79 210.7 399.14 202.36 399.14 193.32C399.14 184.28 400.79 175.94 404.09 168.29C407.39 160.64 412.06 153.98 418.08 148.3C424.1 142.62 431.17 138.22 439.29 135.09C447.4 131.96 456.21 130.4 465.71 130.4C475.33 130.4 484.16 131.96 492.22 135.09C500.27 138.22 507.28 142.62 513.25 148.3C519.22 153.98 523.88 160.61 527.24 168.2C530.6 175.79 532.28 184.16 532.28 193.32C532.28 202.36 530.6 210.73 527.24 218.44C523.88 226.15 519.21 232.81 513.25 238.43C507.28 244.05 500.27 248.42 492.22 251.55C484.16 254.68 475.38 256.24 465.88 256.24ZM465.71 232.26C471.15 232.26 476.17 231.33 480.74 229.48C485.32 227.63 489.34 224.96 492.82 221.48C496.3 218 498.99 213.89 500.9 209.14C502.81 204.39 503.77 199.12 503.77 193.32C503.77 187.53 502.81 182.26 500.9 177.5C498.99 172.75 496.32 168.64 492.91 165.16C489.49 161.68 485.46 159.02 480.83 157.16C476.19 155.31 471.15 154.38 465.71 154.38C460.26 154.38 455.25 155.31 450.67 157.16C446.09 159.02 442.07 161.68 438.59 165.16C435.11 168.64 432.42 172.75 430.51 177.5C428.6 182.25 427.64 187.52 427.64 193.32C427.64 199 428.6 204.24 430.51 209.05C432.42 213.86 435.09 218 438.51 221.48C441.93 224.96 445.95 227.62 450.59 229.48C455.22 231.33 460.26 232.26 465.71 232.26Z" fill="#0B4479"/>
<path d="M574.34 254.16V132.49H627C637.89 132.49 647.28 134.26 655.16 137.79C663.04 141.33 669.12 146.39 673.41 153C677.7 159.6 679.84 167.49 679.84 176.64C679.84 185.68 677.69 193.47 673.41 200.02C669.12 206.57 663.04 211.58 655.16 215.06C647.28 218.54 637.89 220.27 627 220.27H589.98L602.49 207.93V254.16H574.34ZM602.49 211.05L589.98 197.84H625.44C634.13 197.84 640.62 195.96 644.91 192.19C649.2 188.43 651.34 183.24 651.34 176.63C651.34 169.91 649.19 164.7 644.91 160.99C640.62 157.28 634.13 155.43 625.44 155.43H589.98L602.49 142.05V211.05ZM651.68 254.16L621.26 210.01H651.33L682.09 254.16H651.68Z" fill="#0B4479"/>
<path d="M706.95 254.16L761.18 132.49H788.99L843.39 254.16H813.84L769.34 146.74H780.46L735.79 254.16H706.95Z" fill="#0B4479"/>
</svg>
